<?xml version="1.0" encoding="UTF-8"?>
<svg id="_レイヤー_1" data-name="レイヤー 1" xmlns="http://www.w3.org/2000/svg" viewBox="0 0 110.21 153.94">
  <defs>
    <style>
      .cls-1 {
        fill: #00a040;
      }

      .cls-2 {
        fill: #fff;
      }

      .cls-3 {
        fill: #e60020;
      }
    </style>
  </defs>
  <rect class="cls-2" width="110.21" height="153.94"/>
  <g>
    <g>
      <rect class="cls-1" x="9.18" y="9.18" width="91.84" height="91.84"/>
      <path class="cls-2" d="M83.42,55.1c0,17.12-8.43,29.08-20.5,29.08-5.86,0-9.95-4.09-9.95-9.95,0-3.51,1.08-8.67,10.46-12.84,15.4-6.85,18.63-17.61,18.63-25.43,0-13.53-10.2-23.73-23.73-23.73s-25.2,9.87-29.46,25.77l-15.86,59.19h14.26l14.9-55.62c.98-3.65,5.03-15.56,16.16-15.56,5.86,0,9.95,4.09,9.95,9.95,0,3.51-1.08,8.67-10.45,12.84-15.4,6.86-18.63,17.61-18.63,25.43,0,13.53,10.2,23.73,23.73,23.73,9.69,0,18.5-4.36,24.79-12.29,6.2-7.81,9.48-18.38,9.48-30.57h-13.78Z"/>
    </g>
    <g>
      <path class="cls-3" d="M48.95,119.82v5.7h-3.37v-5.7l-6.15-9.61h3.96l3.88,6.65,3.89-6.65h3.96l-6.16,9.61ZM71.43,117.88c0,4.49-3.63,8.1-8.11,8.1s-8.12-3.62-8.12-8.1,3.63-8.11,8.12-8.11,8.11,3.62,8.11,8.11ZM67.91,117.88c0-2.97-2.08-5.37-4.6-5.37s-4.59,2.4-4.59,5.37,2.05,5.35,4.59,5.35,4.6-2.39,4.6-5.35ZM39.36,117.88c0,4.49-3.65,8.1-8.12,8.1s-8.12-3.62-8.12-8.1,3.64-8.11,8.12-8.11,8.12,3.62,8.12,8.11ZM35.84,117.88c0-2.97-2.07-5.37-4.6-5.37s-4.6,2.4-4.6,5.37,2.05,5.35,4.6,5.35,4.6-2.39,4.6-5.35ZM96.11,122.14h-6.87l-1.29,3.38h-3.6l6.2-15.28h4.28l6.2,15.28h-3.61l-1.31-3.38ZM95.05,119.4l-2.37-6.13-2.37,6.13h4.74ZM22.35,110.21h-13.17v3.04h4.9v12.27h3.39v-12.27h4.88v-3.04ZM85.35,110.21h-13.16v3.04h4.89v12.27h3.37v-12.27h4.91v-3.04Z"/>
      <g>
        <path class="cls-3" d="M16.86,131.27c.57,0,1.09.1,1.55.29.46.2.85.46,1.18.8.33.34.58.73.75,1.18.17.45.26.93.26,1.44,0,.79-.16,1.48-.47,2.06-.32.58-.83,1.02-1.55,1.32v.04c.35.1.63.26.86.46.23.21.41.45.55.74.14.28.25.59.32.93.06.34.11.68.13,1.02.01.21.02.47.04.75.01.29.03.58.06.89.03.3.08.59.14.86.07.27.16.5.3.69h-2.82c-.16-.43-.25-.94-.29-1.53-.04-.59-.09-1.16-.16-1.7-.1-.7-.3-1.22-.61-1.55-.31-.33-.82-.49-1.52-.49h-2.82v5.27h-2.82v-13.48h6.91ZM15.85,137.37c.65,0,1.13-.15,1.45-.45.32-.3.49-.79.49-1.47s-.16-1.13-.49-1.43c-.32-.3-.81-.44-1.45-.44h-3.08v3.79h3.08Z"/>
        <path class="cls-3" d="M25.28,142.41c.4.39.98.59,1.74.59.54,0,1.01-.14,1.4-.41.39-.27.63-.56.72-.86h2.36c-.38,1.17-.96,2.01-1.74,2.51-.78.5-1.72.76-2.83.76-.77,0-1.46-.12-2.08-.37-.62-.25-1.14-.6-1.57-1.05-.43-.45-.76-.99-.99-1.62-.23-.63-.35-1.32-.35-2.08s.12-1.41.36-2.04c.24-.63.58-1.17,1.02-1.63.44-.46.97-.82,1.58-1.09.61-.26,1.29-.4,2.03-.4.83,0,1.55.16,2.17.48.62.32,1.12.75,1.52,1.29.4.54.68,1.16.86,1.85.18.69.24,1.42.19,2.17h-7.04c.04.87.26,1.5.66,1.89ZM28.31,137.28c-.32-.35-.81-.53-1.46-.53-.43,0-.78.07-1.07.22-.28.14-.51.32-.68.54-.17.21-.29.44-.36.68-.07.24-.11.45-.12.64h4.36c-.13-.68-.35-1.2-.67-1.55Z"/>
        <path class="cls-3" d="M35.71,134.99v1.36h.05c.32-.57.74-.98,1.26-1.24.51-.26,1.04-.39,1.58-.39.68,0,1.24.1,1.68.29.44.19.78.47,1.03.81.25.35.43.77.53,1.26.1.5.15,1.05.15,1.65v6h-2.55v-5.51c0-.81-.12-1.41-.36-1.8-.24-.4-.66-.59-1.27-.59-.69,0-1.2.22-1.51.65-.31.43-.47,1.15-.47,2.14v5.12h-2.55v-9.76h2.42Z"/>
        <path class="cls-3" d="M49.11,134.99v1.79h-1.86v4.83c0,.45.07.75.22.91.14.15.43.23.86.23.14,0,.28,0,.41-.02.13-.01.26-.03.38-.06v2.08c-.21.04-.45.06-.72.08-.26.01-.52.02-.77.02-.39,0-.77-.03-1.12-.08-.35-.06-.66-.17-.93-.33-.27-.16-.48-.4-.64-.7-.16-.3-.23-.7-.23-1.19v-5.76h-1.54v-1.79h1.54v-2.93h2.55v2.93h1.86Z"/>
        <path class="cls-3" d="M55.03,137.99c.04-.63.19-1.15.45-1.57.26-.41.6-.75,1-1,.41-.25.86-.43,1.37-.54.51-.11,1.02-.16,1.53-.16.47,0,.94.03,1.42.1.48.07.92.21,1.31.41.39.2.72.48.97.84.25.36.38.83.38,1.43v5.08c0,.44.02.86.07,1.27.05.4.13.7.25.91h-2.58c-.05-.15-.09-.31-.12-.46-.03-.16-.05-.32-.06-.48-.41.44-.89.75-1.44.92-.55.18-1.11.26-1.69.26-.44,0-.85-.06-1.24-.17-.38-.11-.72-.29-1-.53-.29-.24-.51-.54-.67-.91-.16-.37-.24-.8-.24-1.3,0-.55.09-1.01.28-1.37.19-.36.42-.65.72-.86.29-.21.63-.37,1-.48.38-.11.76-.19,1.14-.25.38-.06.76-.11,1.13-.15.37-.04.7-.09.99-.17.29-.08.51-.19.68-.33.17-.14.25-.36.23-.63,0-.29-.05-.52-.13-.69-.09-.17-.21-.3-.36-.4-.15-.09-.32-.16-.52-.19-.2-.03-.41-.05-.64-.05-.5,0-.9.11-1.18.34-.29.23-.45.6-.5,1.13h-2.55ZM60.91,139.98c-.11.1-.24.18-.4.24-.16.06-.34.1-.52.14-.19.04-.38.07-.58.09-.2.03-.41.06-.61.09-.19.04-.38.09-.56.15-.19.06-.35.15-.48.26-.14.11-.25.24-.33.41-.08.16-.12.37-.12.62,0,.24.04.44.12.6.08.16.2.29.34.39s.31.16.5.2c.19.04.39.06.59.06.5,0,.89-.09,1.17-.26.28-.18.48-.39.61-.63.13-.25.21-.49.24-.75.03-.25.05-.45.05-.6v-1Z"/>
        <path class="cls-3" d="M78.5,134.87c-.18-.28-.4-.53-.66-.74-.26-.21-.56-.38-.9-.5-.33-.12-.68-.18-1.05-.18-.67,0-1.23.13-1.7.39-.46.26-.84.6-1.13,1.04-.29.43-.5.93-.63,1.48-.13.55-.2,1.13-.2,1.72s.07,1.12.2,1.65c.13.53.34,1.02.63,1.44.29.43.67.77,1.13,1.03s1.03.39,1.7.39c.91,0,1.61-.28,2.12-.83.51-.55.82-1.28.94-2.19h2.87c-.08.84-.27,1.6-.58,2.28-.31.68-.73,1.26-1.25,1.74-.51.48-1.12.84-1.81,1.09-.69.25-1.45.38-2.28.38-1.03,0-1.96-.18-2.78-.54-.82-.36-1.52-.85-2.09-1.48-.57-.63-1-1.37-1.3-2.22-.3-.85-.45-1.76-.45-2.75s.15-1.94.45-2.8c.3-.86.74-1.61,1.3-2.26.57-.64,1.26-1.15,2.09-1.51.82-.37,1.75-.55,2.78-.55.74,0,1.44.11,2.1.32.66.21,1.25.53,1.77.93.52.41.95.92,1.29,1.52.34.6.55,1.3.64,2.08h-2.87c-.05-.34-.16-.65-.34-.94Z"/>
        <path class="cls-3" d="M83.5,137.99c.04-.63.19-1.15.45-1.57.26-.41.6-.75,1-1,.41-.25.86-.43,1.37-.54.51-.11,1.02-.16,1.53-.16.47,0,.94.03,1.42.1.48.07.91.21,1.31.41.4.2.72.48.97.84.25.36.38.83.38,1.43v5.08c0,.44.02.86.07,1.27.05.4.13.7.25.91h-2.58c-.05-.15-.09-.31-.12-.46-.03-.16-.05-.32-.06-.48-.41.44-.89.75-1.43.92-.55.18-1.11.26-1.69.26-.44,0-.85-.06-1.24-.17-.38-.11-.72-.29-1-.53-.29-.24-.51-.54-.67-.91-.16-.37-.24-.8-.24-1.3,0-.55.09-1.01.28-1.37.18-.36.42-.65.72-.86.29-.21.63-.37,1-.48.38-.11.76-.19,1.14-.25.38-.06.76-.11,1.13-.15.37-.04.7-.09.99-.17.29-.08.51-.19.68-.33.17-.14.25-.36.23-.63,0-.29-.04-.52-.13-.69-.09-.17-.21-.3-.36-.4-.15-.09-.32-.16-.52-.19-.2-.03-.41-.05-.64-.05-.5,0-.9.11-1.18.34-.29.23-.45.6-.5,1.13h-2.55ZM89.38,139.98c-.11.1-.24.18-.4.24s-.34.1-.52.14c-.19.04-.38.07-.58.09-.2.03-.41.06-.61.09-.19.04-.38.09-.57.15-.18.06-.35.15-.48.26-.14.11-.25.24-.33.41-.08.16-.13.37-.13.62,0,.24.04.44.13.6.08.16.2.29.34.39.14.09.31.16.5.2.19.04.39.06.59.06.5,0,.89-.09,1.16-.26.28-.18.48-.39.61-.63.13-.25.21-.49.24-.75.03-.25.04-.45.04-.6v-1Z"/>
        <path class="cls-3" d="M96.41,134.99v1.81h.04c.12-.3.28-.58.48-.84.2-.26.44-.48.7-.66.26-.18.54-.32.84-.42.3-.1.61-.15.93-.15.17,0,.35.03.56.09v2.49c-.12-.03-.26-.05-.43-.07-.17-.02-.33-.03-.48-.03-.47,0-.86.08-1.18.25-.32.16-.58.39-.78.67-.2.28-.34.61-.42.99-.08.38-.13.79-.13,1.23v4.4h-2.55v-9.76h2.42Z"/>
      </g>
    </g>
  </g>
</svg>